<svg xmlns="http://www.w3.org/2000/svg" xmlns:xlink="http://www.w3.org/1999/xlink" width="300" zoomAndPan="magnify" viewBox="0 0 375 374.999991" height="150" preserveAspectRatio="xMidYMid meet" version="1.0"><defs><g/><clipPath id="dadfc3193e"><path d="M 19.367188 133.984375 L 356.867188 133.984375 L 356.867188 247.984375 L 19.367188 247.984375 Z M 19.367188 133.984375 " clip-rule="nonzero"/></clipPath><clipPath id="60627e5a21"><path d="M 64.332031 224.683594 L 310.667969 224.683594 L 310.667969 264.539062 L 64.332031 264.539062 Z M 64.332031 224.683594 " clip-rule="nonzero"/></clipPath></defs><g clip-path="url(#dadfc3193e)"><path stroke-linecap="butt" transform="matrix(0.75, 0, 0, 0.75, 19.368836, 133.984678)" fill="none" stroke-linejoin="miter" d="M -0.0021974 -0.000404536 L 450.169707 -0.000404536 L 450.169707 152.17148 L -0.0021974 152.17148 Z M -0.0021974 -0.000404536 " stroke="#97a17c" stroke-width="12" stroke-opacity="1" stroke-miterlimit="4"/></g><g fill="#f9efc8" fill-opacity="1"><g transform="translate(29.929904, 220.124986)"><g><path d="M 43.265625 -56.625 C 42.898438 -52.84375 42.71875 -49.429688 42.71875 -46.390625 C 42.71875 -43.722656 42.796875 -41.535156 42.953125 -39.828125 L 41.109375 -39.828125 C 40.679688 -43.929688 40.144531 -46.984375 39.5 -48.984375 C 38.863281 -50.984375 37.742188 -52.453125 36.140625 -53.390625 C 34.546875 -54.328125 32.097656 -54.796875 28.796875 -54.796875 L 23.75 -54.796875 C 21.832031 -54.796875 20.429688 -54.644531 19.546875 -54.34375 C 18.671875 -54.050781 18.070312 -53.453125 17.75 -52.546875 C 17.4375 -51.640625 17.28125 -50.175781 17.28125 -48.15625 L 17.28125 -28.46875 L 23.109375 -28.46875 C 24.984375 -28.46875 26.425781 -28.90625 27.4375 -29.78125 C 28.445312 -30.664062 29.125 -31.707031 29.46875 -32.90625 C 29.820312 -34.113281 30.101562 -35.625 30.3125 -37.4375 L 30.546875 -39.03125 L 32.390625 -39.03125 C 32.234375 -36.789062 32.15625 -34.285156 32.15625 -31.515625 L 32.15625 -27.671875 C 32.15625 -24.953125 32.316406 -21.164062 32.640625 -16.3125 L 30.796875 -16.3125 C 30.742188 -16.6875 30.582031 -17.976562 30.3125 -20.1875 C 30.050781 -22.40625 29.316406 -24.070312 28.109375 -25.1875 C 26.910156 -26.3125 25.242188 -26.875 23.109375 -26.875 L 17.28125 -26.875 L 17.28125 -8.484375 C 17.28125 -6.453125 17.492188 -4.984375 17.921875 -4.078125 C 18.347656 -3.171875 19.09375 -2.554688 20.15625 -2.234375 C 21.21875 -1.921875 22.953125 -1.707031 25.359375 -1.59375 L 25.359375 0 C 22.585938 -0.15625 18.664062 -0.234375 13.59375 -0.234375 C 9.007812 -0.234375 5.597656 -0.15625 3.359375 0 L 3.359375 -1.59375 C 5.273438 -1.707031 6.671875 -1.921875 7.546875 -2.234375 C 8.429688 -2.554688 9.035156 -3.171875 9.359375 -4.078125 C 9.679688 -4.984375 9.84375 -6.453125 9.84375 -8.484375 L 9.84375 -48.15625 C 9.84375 -50.175781 9.679688 -51.640625 9.359375 -52.546875 C 9.035156 -53.453125 8.429688 -54.066406 7.546875 -54.390625 C 6.671875 -54.710938 5.273438 -54.925781 3.359375 -55.03125 L 3.359375 -56.625 C 8.585938 -56.46875 16.320312 -56.390625 26.5625 -56.390625 C 34.394531 -56.390625 39.960938 -56.46875 43.265625 -56.625 Z M 43.265625 -56.625 "/></g></g></g><g fill="#f9efc8" fill-opacity="1"><g transform="translate(73.039137, 220.124986)"><g><path d="M 52.796875 -4 C 51.566406 -2.1875 50.335938 -0.878906 49.109375 -0.078125 C 47.878906 0.722656 46.253906 1.125 44.234375 1.125 C 42.046875 1.125 40.242188 0.484375 38.828125 -0.796875 C 37.421875 -2.078125 36.367188 -4.316406 35.671875 -7.515625 L 33.90625 -15.515625 C 33.269531 -18.285156 32.671875 -20.414062 32.109375 -21.90625 C 31.554688 -23.40625 30.71875 -24.609375 29.59375 -25.515625 C 28.476562 -26.421875 26.90625 -26.875 24.875 -26.875 L 17.28125 -26.875 L 17.28125 -8.484375 C 17.28125 -6.453125 17.4375 -4.984375 17.75 -4.078125 C 18.070312 -3.171875 18.671875 -2.554688 19.546875 -2.234375 C 20.429688 -1.921875 21.832031 -1.707031 23.75 -1.59375 L 23.75 0 C 21.300781 -0.15625 17.914062 -0.234375 13.59375 -0.234375 C 9.007812 -0.234375 5.597656 -0.15625 3.359375 0 L 3.359375 -1.59375 C 5.273438 -1.707031 6.671875 -1.921875 7.546875 -2.234375 C 8.429688 -2.554688 9.035156 -3.171875 9.359375 -4.078125 C 9.679688 -4.984375 9.84375 -6.453125 9.84375 -8.484375 L 9.84375 -48.15625 C 9.84375 -50.175781 9.679688 -51.640625 9.359375 -52.546875 C 9.035156 -53.453125 8.429688 -54.066406 7.546875 -54.390625 C 6.671875 -54.710938 5.273438 -54.925781 3.359375 -55.03125 L 3.359375 -56.625 C 5.597656 -56.46875 8.851562 -56.390625 13.125 -56.390625 L 21.75 -56.46875 C 22.769531 -56.519531 23.914062 -56.546875 25.1875 -56.546875 C 31.375 -56.546875 36.132812 -55.253906 39.46875 -52.671875 C 42.800781 -50.085938 44.46875 -46.738281 44.46875 -42.625 C 44.46875 -40.550781 43.972656 -38.457031 42.984375 -36.34375 C 42.003906 -34.238281 40.351562 -32.347656 38.03125 -30.671875 C 35.707031 -28.992188 32.679688 -27.863281 28.953125 -27.28125 L 29.921875 -27.109375 C 33.429688 -26.523438 35.988281 -25.457031 37.59375 -23.90625 C 39.195312 -22.363281 40.367188 -19.914062 41.109375 -16.5625 L 43.109375 -8.390625 C 43.640625 -5.941406 44.195312 -4.238281 44.78125 -3.28125 C 45.375 -2.320312 46.175781 -1.84375 47.1875 -1.84375 C 48.09375 -1.84375 48.851562 -2.082031 49.46875 -2.5625 C 50.082031 -3.039062 50.789062 -3.8125 51.59375 -4.875 Z M 23.203125 -55.03125 C 21.546875 -55.03125 20.300781 -54.84375 19.46875 -54.46875 C 18.644531 -54.09375 18.070312 -53.425781 17.75 -52.46875 C 17.4375 -51.507812 17.28125 -50.070312 17.28125 -48.15625 L 17.28125 -28.46875 L 22.640625 -28.46875 C 27.910156 -28.46875 31.53125 -29.640625 33.5 -31.984375 C 35.476562 -34.335938 36.46875 -37.59375 36.46875 -41.75 C 36.46875 -46.125 35.425781 -49.429688 33.34375 -51.671875 C 31.269531 -53.910156 27.890625 -55.03125 23.203125 -55.03125 Z M 23.203125 -55.03125 "/></g></g></g><g fill="#f9efc8" fill-opacity="1"><g transform="translate(122.466824, 220.124986)"><g><path d="M 45.34375 -6.71875 C 46.625 -3.414062 48.46875 -1.707031 50.875 -1.59375 L 50.875 0 C 48.738281 -0.15625 45.882812 -0.234375 42.3125 -0.234375 C 37.726562 -0.234375 34.316406 -0.15625 32.078125 0 L 32.078125 -1.59375 C 34.097656 -1.707031 35.546875 -1.960938 36.421875 -2.359375 C 37.304688 -2.753906 37.75 -3.488281 37.75 -4.5625 C 37.75 -5.46875 37.429688 -6.71875 36.796875 -8.3125 L 31.90625 -21.4375 L 12.5625 -21.4375 L 9.28125 -12.953125 C 8.207031 -10.078125 7.671875 -7.894531 7.671875 -6.40625 C 7.671875 -4.75 8.242188 -3.546875 9.390625 -2.796875 C 10.546875 -2.046875 12.296875 -1.644531 14.640625 -1.59375 L 14.640625 0 C 11.597656 -0.15625 8.53125 -0.234375 5.4375 -0.234375 C 3.039062 -0.234375 1.039062 -0.15625 -0.5625 0 L -0.5625 -1.59375 C 2.101562 -2.238281 4.210938 -4.5625 5.765625 -8.5625 L 24.5625 -57.03125 L 25.828125 -57.03125 Z M 31.28125 -23.03125 L 22.3125 -46.953125 L 13.203125 -23.03125 Z M 31.28125 -23.03125 "/></g></g></g><g fill="#f9efc8" fill-opacity="1"><g transform="translate(170.454873, 220.124986)"><g><path d="M 53.59375 -55.03125 C 51.726562 -54.925781 50.34375 -54.644531 49.4375 -54.1875 C 48.53125 -53.738281 47.914062 -52.992188 47.59375 -51.953125 C 47.269531 -50.910156 47.109375 -49.375 47.109375 -47.34375 L 47.109375 0.40625 L 45.265625 0.40625 L 11.671875 -51.515625 L 11.671875 -9.28125 C 11.671875 -7.195312 11.84375 -5.648438 12.1875 -4.640625 C 12.539062 -3.628906 13.222656 -2.894531 14.234375 -2.4375 C 15.242188 -1.988281 16.816406 -1.707031 18.953125 -1.59375 L 18.953125 0 C 17.035156 -0.15625 14.316406 -0.234375 10.796875 -0.234375 C 7.597656 -0.234375 5.117188 -0.15625 3.359375 0 L 3.359375 -1.59375 C 5.222656 -1.707031 6.609375 -1.988281 7.515625 -2.4375 C 8.421875 -2.894531 9.035156 -3.640625 9.359375 -4.671875 C 9.679688 -5.710938 9.84375 -7.25 9.84375 -9.28125 L 9.84375 -48.15625 C 9.84375 -50.175781 9.679688 -51.640625 9.359375 -52.546875 C 9.035156 -53.453125 8.429688 -54.066406 7.546875 -54.390625 C 6.671875 -54.710938 5.273438 -54.925781 3.359375 -55.03125 L 3.359375 -56.625 C 5.117188 -56.46875 7.597656 -56.390625 10.796875 -56.390625 C 13.191406 -56.390625 15.269531 -56.46875 17.03125 -56.625 L 45.265625 -13.125 L 45.265625 -47.34375 C 45.265625 -49.425781 45.09375 -50.972656 44.75 -51.984375 C 44.40625 -53.003906 43.722656 -53.738281 42.703125 -54.1875 C 41.691406 -54.644531 40.125 -54.925781 38 -55.03125 L 38 -56.625 C 39.914062 -56.46875 42.632812 -56.390625 46.15625 -56.390625 C 49.351562 -56.390625 51.832031 -56.46875 53.59375 -56.625 Z M 53.59375 -55.03125 "/></g></g></g><g fill="#f9efc8" fill-opacity="1"><g transform="translate(224.521429, 220.124986)"><g><path d="M 29.671875 -57.75 C 32.867188 -57.75 35.585938 -57.296875 37.828125 -56.390625 C 40.066406 -55.484375 42.253906 -54.203125 44.390625 -52.546875 C 44.972656 -52.066406 45.476562 -51.828125 45.90625 -51.828125 C 46.976562 -51.828125 47.671875 -53.425781 47.984375 -56.625 L 49.828125 -56.625 C 49.617188 -53.164062 49.515625 -47.035156 49.515625 -38.234375 L 47.671875 -38.234375 C 47.085938 -41.703125 46.550781 -44.191406 46.0625 -45.703125 C 45.582031 -47.222656 44.785156 -48.675781 43.671875 -50.0625 C 42.066406 -52.144531 40.023438 -53.707031 37.546875 -54.75 C 35.066406 -55.789062 32.390625 -56.3125 29.515625 -56.3125 C 26.046875 -56.3125 23.019531 -55.164062 20.4375 -52.875 C 17.851562 -50.582031 15.835938 -47.316406 14.390625 -43.078125 C 12.953125 -38.835938 12.234375 -33.863281 12.234375 -28.15625 C 12.234375 -22.34375 13.003906 -17.351562 14.546875 -13.1875 C 16.097656 -9.03125 18.242188 -5.875 20.984375 -3.71875 C 23.734375 -1.5625 26.84375 -0.484375 30.3125 -0.484375 C 32.976562 -0.484375 35.5625 -0.988281 38.0625 -2 C 40.570312 -3.007812 42.546875 -4.53125 43.984375 -6.5625 C 45.054688 -8.050781 45.832031 -9.648438 46.3125 -11.359375 C 46.789062 -13.066406 47.242188 -15.679688 47.671875 -19.203125 L 49.515625 -19.203125 C 49.515625 -10.023438 49.617188 -3.625 49.828125 0 L 47.984375 0 C 47.828125 -1.707031 47.601562 -2.921875 47.3125 -3.640625 C 47.019531 -4.359375 46.609375 -4.71875 46.078125 -4.71875 C 45.648438 -4.71875 45.085938 -4.503906 44.390625 -4.078125 C 41.992188 -2.367188 39.703125 -1.070312 37.515625 -0.1875 C 35.328125 0.6875 32.6875 1.125 29.59375 1.125 C 24.53125 1.125 20.09375 -0.0195312 16.28125 -2.3125 C 12.46875 -4.613281 9.503906 -7.9375 7.390625 -12.28125 C 5.285156 -16.625 4.234375 -21.804688 4.234375 -27.828125 C 4.234375 -33.703125 5.3125 -38.90625 7.46875 -43.4375 C 9.632812 -47.96875 12.648438 -51.484375 16.515625 -53.984375 C 20.378906 -56.492188 24.765625 -57.75 29.671875 -57.75 Z M 29.671875 -57.75 "/></g></g></g><g fill="#f9efc8" fill-opacity="1"><g transform="translate(277.14834, 220.124986)"><g><path d="M 23.75 -55.03125 C 21.832031 -54.925781 20.429688 -54.710938 19.546875 -54.390625 C 18.671875 -54.066406 18.070312 -53.453125 17.75 -52.546875 C 17.4375 -51.640625 17.28125 -50.175781 17.28125 -48.15625 L 17.28125 -8.484375 C 17.28125 -6.453125 17.4375 -4.984375 17.75 -4.078125 C 18.070312 -3.171875 18.671875 -2.554688 19.546875 -2.234375 C 20.429688 -1.921875 21.832031 -1.707031 23.75 -1.59375 L 23.75 0 C 21.300781 -0.15625 17.914062 -0.234375 13.59375 -0.234375 C 9.007812 -0.234375 5.597656 -0.15625 3.359375 0 L 3.359375 -1.59375 C 5.273438 -1.707031 6.671875 -1.921875 7.546875 -2.234375 C 8.429688 -2.554688 9.035156 -3.171875 9.359375 -4.078125 C 9.679688 -4.984375 9.84375 -6.453125 9.84375 -8.484375 L 9.84375 -48.15625 C 9.84375 -50.175781 9.679688 -51.640625 9.359375 -52.546875 C 9.035156 -53.453125 8.429688 -54.066406 7.546875 -54.390625 C 6.671875 -54.710938 5.273438 -54.925781 3.359375 -55.03125 L 3.359375 -56.625 C 5.597656 -56.46875 9.007812 -56.390625 13.59375 -56.390625 C 17.863281 -56.390625 21.25 -56.46875 23.75 -56.625 Z M 23.75 -55.03125 "/></g></g></g><g fill="#f9efc8" fill-opacity="1"><g transform="translate(301.862084, 220.124986)"><g><path d="M 20.46875 -57.515625 C 22.820312 -57.515625 24.675781 -57.257812 26.03125 -56.75 C 27.394531 -56.238281 28.796875 -55.503906 30.234375 -54.546875 C 31.410156 -53.796875 32.316406 -53.421875 32.953125 -53.421875 C 33.429688 -53.421875 33.800781 -53.703125 34.0625 -54.265625 C 34.332031 -54.828125 34.550781 -55.722656 34.71875 -56.953125 L 36.546875 -56.953125 C 36.285156 -53.859375 36.15625 -48.414062 36.15625 -40.625 L 34.3125 -40.625 C 33.988281 -44.945312 32.75 -48.585938 30.59375 -51.546875 C 28.4375 -54.503906 25.304688 -55.984375 21.203125 -55.984375 C 18.316406 -55.984375 15.96875 -55.117188 14.15625 -53.390625 C 12.34375 -51.660156 11.4375 -49.429688 11.4375 -46.703125 C 11.4375 -44.679688 11.898438 -42.921875 12.828125 -41.421875 C 13.765625 -39.929688 14.953125 -38.65625 16.390625 -37.59375 C 17.835938 -36.53125 19.894531 -35.171875 22.5625 -33.515625 L 24.875 -32.078125 C 28.238281 -29.992188 30.890625 -28.164062 32.828125 -26.59375 C 34.773438 -25.019531 36.332031 -23.21875 37.5 -21.1875 C 38.675781 -19.164062 39.265625 -16.796875 39.265625 -14.078125 C 39.265625 -9.222656 37.664062 -5.472656 34.46875 -2.828125 C 31.269531 -0.191406 27.21875 1.125 22.3125 1.125 C 19.75 1.125 17.65625 0.851562 16.03125 0.3125 C 14.40625 -0.21875 12.847656 -0.9375 11.359375 -1.84375 C 10.179688 -2.582031 9.273438 -2.953125 8.640625 -2.953125 C 8.160156 -2.953125 7.785156 -2.671875 7.515625 -2.109375 C 7.253906 -1.554688 7.039062 -0.664062 6.875 0.5625 L 5.03125 0.5625 C 5.25 -2.375 5.359375 -8.773438 5.359375 -18.640625 L 7.203125 -18.640625 C 7.578125 -13.253906 8.910156 -8.878906 11.203125 -5.515625 C 13.492188 -2.160156 17.007812 -0.484375 21.75 -0.484375 C 24.632812 -0.484375 27.085938 -1.375 29.109375 -3.15625 C 31.140625 -4.945312 32.15625 -7.601562 32.15625 -11.125 C 32.15625 -14.101562 31.15625 -16.628906 29.15625 -18.703125 C 27.15625 -20.785156 23.992188 -23.132812 19.671875 -25.75 C 16.523438 -27.675781 13.976562 -29.382812 12.03125 -30.875 C 10.09375 -32.363281 8.507812 -34.160156 7.28125 -36.265625 C 6.050781 -38.378906 5.4375 -40.847656 5.4375 -43.671875 C 5.4375 -48.148438 6.875 -51.578125 9.75 -53.953125 C 12.632812 -56.328125 16.207031 -57.515625 20.46875 -57.515625 Z M 20.46875 -57.515625 "/></g></g></g><g clip-path="url(#60627e5a21)"><path fill="#000000" d="M 64.332031 224.683594 L 310.628906 224.683594 L 310.628906 264.539062 L 64.332031 264.539062 Z M 64.332031 224.683594 " fill-opacity="1" fill-rule="nonzero"/></g><g fill="#ffaa3f" fill-opacity="1"><g transform="translate(77.352466, 254.491639)"><g><path d="M 11.890625 0 L 9.875 0 L 9.875 -4.9375 L 3.5625 -4.9375 L 3.5625 0 L 1.5625 0 L 1.5625 -11.90625 L 3.5625 -11.90625 L 3.5625 -6.734375 L 9.875 -6.734375 L 9.875 -11.90625 L 11.890625 -11.90625 Z M 11.890625 0 "/></g></g></g><g fill="#ffaa3f" fill-opacity="1"><g transform="translate(100.143308, 254.491639)"><g><path d="M 10.0625 -10.09375 L 3.5625 -10.09375 L 3.5625 -6.890625 L 9.390625 -6.890625 L 9.390625 -5.078125 L 3.5625 -5.078125 L 3.5625 -1.796875 L 10.265625 -1.796875 L 10.265625 0 L 1.5625 0 L 1.5625 -11.90625 L 10.0625 -11.90625 Z M 10.0625 -10.09375 "/></g></g></g><g fill="#ffaa3f" fill-opacity="1"><g transform="translate(120.640216, 254.491639)"><g><path d="M 3.5625 -1.8125 L 8.71875 -1.8125 L 8.71875 0 L 1.5625 0 L 1.5625 -11.90625 L 3.5625 -11.90625 Z M 3.5625 -1.8125 "/></g></g></g><g fill="#ffaa3f" fill-opacity="1"><g transform="translate(139.064087, 254.491639)"><g><path d="M 3.5625 -1.8125 L 8.71875 -1.8125 L 8.71875 0 L 1.5625 0 L 1.5625 -11.90625 L 3.5625 -11.90625 Z M 3.5625 -1.8125 "/></g></g></g><g fill="#ffaa3f" fill-opacity="1"><g transform="translate(157.487952, 254.491639)"><g><path d="M 2.390625 -10.21875 C 3.609375 -11.375 5.101562 -11.953125 6.875 -11.953125 C 8.65625 -11.953125 10.148438 -11.375 11.359375 -10.21875 C 12.578125 -9.070312 13.1875 -7.648438 13.1875 -5.953125 C 13.1875 -4.253906 12.578125 -2.820312 11.359375 -1.65625 C 10.148438 -0.5 8.65625 0.078125 6.875 0.078125 C 5.101562 0.078125 3.609375 -0.5 2.390625 -1.65625 C 1.179688 -2.820312 0.578125 -4.253906 0.578125 -5.953125 C 0.578125 -7.648438 1.179688 -9.070312 2.390625 -10.21875 Z M 6.90625 -10.15625 C 5.726562 -10.15625 4.71875 -9.75 3.875 -8.9375 C 3.039062 -8.125 2.625 -7.128906 2.625 -5.953125 C 2.625 -4.773438 3.046875 -3.773438 3.890625 -2.953125 C 4.734375 -2.128906 5.738281 -1.71875 6.90625 -1.71875 C 8.070312 -1.71875 9.066406 -2.128906 9.890625 -2.953125 C 10.722656 -3.773438 11.140625 -4.773438 11.140625 -5.953125 C 11.140625 -7.128906 10.722656 -8.125 9.890625 -8.9375 C 9.066406 -9.75 8.070312 -10.15625 6.90625 -10.15625 Z M 6.90625 -10.15625 "/></g></g></g><g fill="#ffaa3f" fill-opacity="1"><g transform="translate(180.60164, 254.491639)"><g/></g></g><g fill="#ffaa3f" fill-opacity="1"><g transform="translate(194.335671, 254.491639)"><g><path d="M 13.796875 0 L 11.75 0 L 8.921875 -9.28125 L 6.0625 0 L 4 0 L 0.046875 -11.90625 L 2.203125 -11.90625 L 5.09375 -2.234375 L 7.96875 -11.890625 L 9.9375 -11.90625 L 12.828125 -2.234375 L 15.703125 -11.90625 L 17.78125 -11.90625 Z M 13.796875 0 "/></g></g></g><g fill="#ffaa3f" fill-opacity="1"><g transform="translate(221.289595, 254.491639)"><g><path d="M 2.390625 -10.21875 C 3.609375 -11.375 5.101562 -11.953125 6.875 -11.953125 C 8.65625 -11.953125 10.148438 -11.375 11.359375 -10.21875 C 12.578125 -9.070312 13.1875 -7.648438 13.1875 -5.953125 C 13.1875 -4.253906 12.578125 -2.820312 11.359375 -1.65625 C 10.148438 -0.5 8.65625 0.078125 6.875 0.078125 C 5.101562 0.078125 3.609375 -0.5 2.390625 -1.65625 C 1.179688 -2.820312 0.578125 -4.253906 0.578125 -5.953125 C 0.578125 -7.648438 1.179688 -9.070312 2.390625 -10.21875 Z M 6.90625 -10.15625 C 5.726562 -10.15625 4.71875 -9.75 3.875 -8.9375 C 3.039062 -8.125 2.625 -7.128906 2.625 -5.953125 C 2.625 -4.773438 3.046875 -3.773438 3.890625 -2.953125 C 4.734375 -2.128906 5.738281 -1.71875 6.90625 -1.71875 C 8.070312 -1.71875 9.066406 -2.128906 9.890625 -2.953125 C 10.722656 -3.773438 11.140625 -4.773438 11.140625 -5.953125 C 11.140625 -7.128906 10.722656 -8.125 9.890625 -8.9375 C 9.066406 -9.75 8.070312 -10.15625 6.90625 -10.15625 Z M 6.90625 -10.15625 "/></g></g></g><g fill="#ffaa3f" fill-opacity="1"><g transform="translate(244.403283, 254.491639)"><g><path d="M 9.109375 0 L 6.9375 -3.609375 C 6.820312 -3.597656 6.640625 -3.59375 6.390625 -3.59375 L 3.5625 -3.59375 L 3.5625 0 L 1.5625 0 L 1.5625 -11.90625 L 6.390625 -11.90625 C 7.910156 -11.90625 9.085938 -11.550781 9.921875 -10.84375 C 10.765625 -10.132812 11.1875 -9.132812 11.1875 -7.84375 C 11.1875 -6.882812 10.972656 -6.078125 10.546875 -5.421875 C 10.117188 -4.765625 9.507812 -4.285156 8.71875 -3.984375 L 11.390625 0 Z M 3.5625 -5.390625 L 6.390625 -5.390625 C 8.316406 -5.390625 9.28125 -6.1875 9.28125 -7.78125 C 9.28125 -9.320312 8.316406 -10.09375 6.390625 -10.09375 L 3.5625 -10.09375 Z M 3.5625 -5.390625 "/></g></g></g><g fill="#ffaa3f" fill-opacity="1"><g transform="translate(266.038658, 254.491639)"><g><path d="M 3.5625 -1.8125 L 8.71875 -1.8125 L 8.71875 0 L 1.5625 0 L 1.5625 -11.90625 L 3.5625 -11.90625 Z M 3.5625 -1.8125 "/></g></g></g><g fill="#ffaa3f" fill-opacity="1"><g transform="translate(284.462523, 254.491639)"><g><path d="M 1.5625 -11.90625 L 6.4375 -11.90625 C 8.21875 -11.90625 9.6875 -11.34375 10.84375 -10.21875 C 12.007812 -9.09375 12.59375 -7.664062 12.59375 -5.9375 C 12.59375 -4.21875 12.007812 -2.796875 10.84375 -1.671875 C 9.675781 -0.554688 8.191406 0 6.390625 0 L 1.5625 0 Z M 3.5625 -10.09375 L 3.5625 -1.796875 L 6.5 -1.796875 C 7.664062 -1.796875 8.632812 -2.179688 9.40625 -2.953125 C 10.1875 -3.734375 10.578125 -4.722656 10.578125 -5.921875 C 10.578125 -7.128906 10.175781 -8.125 9.375 -8.90625 C 8.570312 -9.695312 7.582031 -10.09375 6.40625 -10.09375 Z M 3.5625 -10.09375 "/></g></g></g></svg>