<?xml version="1.0" encoding="utf-8"?>
<!-- Generator: Adobe Illustrator 27.5.0, SVG Export Plug-In . SVG Version: 6.00 Build 0)  -->
<svg version="1.1" xmlns="http://www.w3.org/2000/svg" xmlns:xlink="http://www.w3.org/1999/xlink" x="0px" y="0px"
	 viewBox="0 0 750 500" style="enable-background:new 0 0 750 500;" xml:space="preserve">
<g id="BACKGROUND">
	<rect style="fill:#161007;" width="100%" height="auto"/>
</g>
<g id="OBJECTS">
	<g>
		<g>
			<g>
				<polygon style="fill:#E48842;" points="330.972,192.262 330.972,185.765 383.107,185.765 383.107,144.649 330.972,144.649 
					330.972,138.975 390.331,138.975 390.331,97.022 277.102,97.022 277.102,233.32 392.62,233.32 392.62,192.262 				"/>
				<polygon style="fill:#E48842;" points="570.601,97.022 552.802,152.632 535.965,97.022 488.191,97.022 470.372,151.999 
					453.519,97.022 397,97.022 440.616,233.32 494.681,233.32 510.726,182.898 525.959,233.32 580.095,233.32 623.712,97.022 				
					"/>
				<polygon style="fill:#E48842;" points="214.733,97.022 214.733,141.624 177.426,97.022 133.712,97.022 133.712,233.32 
					187.232,233.32 187.232,188.719 224.539,233.32 268.251,233.32 268.251,97.022 				"/>
			</g>
			<g>
				<polygon style="fill:#E48842;" points="180.349,242.798 158.703,279.174 137.211,242.798 78.194,242.798 129.635,329.119 
					129.635,379.097 184.209,379.097 184.209,329.637 235.611,242.798 				"/>
				<path style="fill:#E48842;" d="M343.101,259.94c-13.911-12.871-33.182-19.959-54.262-19.959
					c-21.081,0-40.351,7.088-54.263,19.959c-14.066,13.016-21.814,31.13-21.814,51.008c0,19.878,7.747,37.992,21.814,51.008
					c13.911,12.871,33.182,19.959,54.263,19.959c21.08,0,40.351-7.088,54.262-19.959c14.066-13.016,21.814-31.131,21.814-51.008
					C364.914,291.071,357.167,272.956,343.101,259.94z M288.838,335.268c-12.649,0-21.148-9.773-21.148-24.32
					s8.499-24.321,21.148-24.321c12.65,0,21.149,9.774,21.149,24.321S301.488,335.268,288.838,335.268z"/>
				<path style="fill:#E48842;" d="M480.226,336.581c13.284-9.227,20.504-23.462,20.504-40.78c0-32.198-24.608-53.002-62.69-53.002
					h-65.858v136.298h54.574v-30.998h1.315l20.961,30.998h60.131L480.226,336.581z M426.755,287.862h8.645
					c10.406,0,10.406,5.165,10.406,7.939c0,2.774,0,7.939-10.406,7.939h-8.645V287.862z"/>
				<polygon style="fill:#E48842;" points="606.803,303.948 662.393,242.798 599.542,242.798 568.418,277.168 568.418,242.798 
					514.549,242.798 514.549,379.097 568.418,379.097 568.418,344.616 570.813,341.949 598.832,379.097 663.166,379.097 				"/>
			</g>
		</g>
		<path style="fill:#3D2C17;" d="M662.468,379.097h0.699l-56.363-75.149l55.59-61.15h-62.85l-0.348,0.384h-0.063l-0.348,0.384
			h-0.063l-0.348,0.384h-0.063l-0.348,0.384H597.9l-0.348,0.384h-0.063l-0.348,0.384h-0.063l-0.348,0.384h-0.063l-0.348,0.384
			h-0.063l-0.348,0.384h-0.063l-0.348,0.384h-0.063l-0.348,0.384h-0.063l-0.348,0.384h-0.063l-0.348,0.384h-0.063l-0.348,0.384
			h-0.063l-0.348,0.384h-0.063l-0.348,0.384h-0.063l-0.348,0.384h-0.063l-0.348,0.384h-0.063l-0.348,0.384h-0.063l-0.348,0.384
			h-0.063l-0.348,0.384h-0.063l-0.348,0.384h-0.063l-0.348,0.384h-0.063l-0.348,0.384h-0.063l-0.348,0.384h-0.063l-0.348,0.384
			h-0.063l-0.348,0.384h-0.063l-0.348,0.384h-0.063l-0.348,0.384h-0.063l-0.348,0.384h-0.063l-0.348,0.384h-0.063l-0.348,0.384
			h-0.063l-0.348,0.384h-0.063l-0.348,0.384h-0.063l-0.348,0.384h-0.063l-0.348,0.384h-0.063l-0.348,0.384h-0.063l-0.348,0.384
			h-0.063l-0.348,0.384h-0.063l-0.348,0.384h-0.063l-0.348,0.384h-0.063l-0.348,0.384h-0.063l-0.348,0.384h-0.063l-0.348,0.384
			h-0.063l-0.348,0.384h-0.063l-0.348,0.384h-0.063l-0.348,0.384h-0.063l-0.348,0.384h-0.063l-0.348,0.384h-0.063l-0.348,0.384
			h-0.063l-0.348,0.384h-0.063l-10.183,11.245v-29.555h0.18l0.123-0.384h0.288l0.123-0.384h0.288l0.123-0.384h0.288l0.123-0.384
			h0.288l0.123-0.384h0.288l0.123-0.384h0.288l0.123-0.384h0.288l0.123-0.384h0.288l0.123-0.384h0.288l0.123-0.384h0.288
			l0.123-0.384h0.288l0.123-0.384h0.288l0.123-0.384h0.288l0.123-0.384h0.288l0.123-0.384h0.288l0.123-0.384h0.288l0.123-0.384
			h0.288l0.123-0.384h0.288l0.123-0.384h0.288l0.123-0.384h0.288l0.123-0.384h0.288l0.123-0.384h0.288l0.123-0.384h0.288
			l0.123-0.384h0.288l0.123-0.384h0.288l0.123-0.384h0.288l0.123-0.384h0.288l0.123-0.384h0.288l43.617-136.298h-53.11l-0.123,0.384
			h-0.288l-0.123,0.384h-0.288l-0.123,0.384h-0.288l-0.123,0.384h-0.288l-0.123,0.384h-0.288l-0.123,0.384h-0.288l-0.123,0.384
			h-0.288l-0.123,0.384h-0.288l-0.123,0.384h-0.288l-0.123,0.384h-0.288l-0.123,0.384h-0.288l-0.123,0.384h-0.288l-0.123,0.384
			h-0.288l-0.123,0.384h-0.288l-0.123,0.384h-0.288l-0.123,0.384h-0.288l-0.123,0.384h-0.288l-0.123,0.384h-0.288l-0.123,0.384
			H562.8l-0.123,0.384h-0.288l-0.123,0.384h-0.288l-0.123,0.384h-0.288l-0.123,0.384h-0.288l-0.123,0.384h-0.288l-0.123,0.384
			h-0.288l-0.123,0.384h-0.288l-0.123,0.384h-0.288l-0.123,0.384h-0.288l-0.123,0.384h-0.288l-0.123,0.384h-0.288l-0.123,0.384
			h-0.288l-0.123,0.384h-0.287l-0.123,0.384h-0.288l-0.123,0.384h-0.288l-0.123,0.384h-0.288l-0.123,0.384h-0.288l-0.123,0.384
			h-0.288l-0.123,0.384h-0.288l-0.123,0.384h-0.288l-0.123,0.384h-0.288l-0.123,0.384h-0.288l-0.123,0.384h-0.288l-0.123,0.384
			h-0.288l-0.123,0.384h-0.288l-0.123,0.384h-0.287l-0.123,0.384h-0.288l-0.123,0.384h-0.288l-0.123,0.384h-0.288l-0.123,0.384
			h-0.287l-0.123,0.384h-0.288l-0.123,0.384h-0.288l-3.991,12.47l-9.704-32.052h-47.774l-0.125,0.384h-0.286l-0.124,0.384h-0.286
			l-0.124,0.384h-0.286l-0.125,0.384h-0.286l-0.124,0.384h-0.286l-0.124,0.384h-0.286l-0.124,0.384h-0.286l-0.124,0.384h-0.286
			l-0.125,0.384h-0.286l-0.124,0.384h-0.286l-0.124,0.384h-0.286l-0.125,0.384h-0.286l-0.125,0.384h-0.286l-0.124,0.384h-0.286
			l-0.124,0.384h-0.286l-0.125,0.384h-0.286l-0.125,0.384h-0.286l-0.124,0.384H480.8l-0.124,0.384h-0.286l-0.125,0.384h-0.286
			l-0.124,0.384h-0.286l-0.125,0.384h-0.286l-0.124,0.384h-0.286l-0.124,0.384h-0.286l-0.125,0.384h-0.286l-0.125,0.384h-0.286
			l-0.124,0.384h-0.286l-0.124,0.384h-0.286l-0.125,0.384h-0.286l-0.125,0.384h-0.286l-0.124,0.384h-0.286l-0.124,0.384h-0.286
			l-0.125,0.384h-0.286l-0.125,0.384h-0.286l-0.124,0.384h-0.286l-0.124,0.384h-0.286l-0.125,0.384h-0.286l-0.125,0.384h-0.286
			l-0.124,0.384h-0.286l-0.124,0.384h-0.286l-0.125,0.384h-0.286l-0.125,0.384h-0.286l-0.124,0.384h-0.286l-0.124,0.384h-0.286
			l-0.125,0.384h-0.286l-0.125,0.384h-0.286l-0.124,0.384h-0.286l-0.124,0.384h-0.286l-0.125,0.384h-0.286l-0.125,0.384h-0.286
			l-0.124,0.384h-0.286l-3.971,12.254l-9.759-31.836H397l0.123,0.384h-0.533l0.123,0.384h-0.533l0.123,0.384h-0.534l0.123,0.384
			h-0.533l0.123,0.384h-0.534l0.123,0.384h-0.533l0.123,0.384h-0.534l0.123,0.384h-0.534l0.123,0.384h-0.533l0.123,0.384h-0.533
			l0.123,0.384h-0.534l0.123,0.384h-0.534l0.123,0.384h-0.533l0.123,0.384h-0.533l0.123,0.384h-0.534l0.123,0.384h-0.534
			l0.123,0.384h-0.223v-6.528H277.102v0.384h-0.411v0.384h-0.411v0.384h-0.411v0.384h-0.411v0.384h-0.411v0.384h-0.411v0.384h-0.411
			v0.384h-0.41v0.384h-0.411v0.384h-0.411v0.384h-0.41v0.384h-0.41v0.384h-0.411v0.384h-0.411v0.384h-0.41v0.384h-0.411v0.384
			h-0.411v0.384h-0.411v0.384h-0.411v0.384h-0.411v0.384h-0.411v0.384h-0.228v-8.447h-53.518v0.384h-0.411v0.384h-0.411v0.384
			h-0.411v0.384h-0.411v0.384h-0.411v0.384h-0.411v0.384h-0.41v0.384h-0.411v0.384h-0.411v0.384h-0.41v0.384h-0.411v0.384h-0.411
			v0.384h-0.411v0.384h-0.411v0.384h-0.41v0.384h-0.411v0.384h-0.411v0.384h-0.41v0.384h-0.411v0.384h-0.411v0.384h-0.411v0.384
			H205.7v0.384h-0.411v0.384h-0.411v0.384h-0.411v0.384h-0.411v0.384h-0.411v0.384h-0.411v0.384h-0.411v0.384h-0.411v0.384h-0.41
			v0.384h-0.411v0.384h-0.411v0.384h-0.41v0.384h-0.411v0.384h-0.411v0.384h-0.411v0.384h-0.41v0.384h-0.411v0.384h-0.411v0.384
			h-0.411v0.384h-0.411v0.384h-0.411v0.384h-0.411v0.384h-0.411v0.384h-0.411v0.384h-0.41v0.384h-0.411v0.384h-0.411v0.384h-0.411
			v0.384h-0.398l-16.38-19.582h-43.713v0.384h-0.411v0.384h-0.411v0.384h-0.411v0.384h-0.411v0.384h-0.411v0.384h-0.411v0.384h-0.41
			v0.384h-0.411v0.384h-0.411v0.384h-0.41v0.384h-0.411v0.384h-0.411v0.384h-0.411v0.384h-0.41v0.384h-0.411v0.384h-0.411v0.384
			h-0.411v0.384h-0.411v0.384h-0.41v0.384H125.5v0.384h-0.411v0.384h-0.41v0.384h-0.41v0.384h-0.411v0.384h-0.411v0.384h-0.41v0.384
			h-0.411v0.384h-0.411v0.384h-0.411v0.384h-0.411v0.384h-0.41v0.384h-0.41v0.384h-0.411v0.384h-0.411v0.384h-0.41v0.384h-0.411
			v0.384h-0.411v0.384h-0.411v0.384h-0.411v0.384h-0.41v0.384h-0.411v0.384h-0.411v0.384h-0.41v0.384h-0.41v0.384h-0.411v0.384
			h-0.411v0.384h-0.41v0.384h-0.41v0.384h-0.411v0.384h-0.411v0.384h-0.41v126.194H78.194l0.229,0.384h-0.639l0.229,0.384h-0.64
			l0.229,0.384h-0.639l0.229,0.384h-0.639l0.229,0.384h-0.64l0.229,0.384h-0.64l0.229,0.384H75.32l0.229,0.384h-0.639l0.229,0.384
			h-0.639l0.229,0.384h-0.639l0.229,0.384h-0.639l0.229,0.384h-0.639l0.229,0.384h-0.64l0.229,0.384h-0.64l0.229,0.384h-0.639
			l0.229,0.384h-0.639l0.229,0.384h-0.639l0.229,0.384h-0.639l0.229,0.384h-0.639l0.229,0.384h-0.639l0.229,0.384h-0.639
			l0.229,0.384h-0.64l0.229,0.384h-0.64l0.229,0.384H68.34l0.229,0.384h-0.639l0.229,0.384h-0.64l0.229,0.384h-0.64l0.229,0.384
			h-0.639l0.229,0.384h-0.639l0.229,0.384h-0.639l0.229,0.384h-0.639l0.229,0.384h-0.639l0.229,0.384h-0.639l0.229,0.384h-0.64
			l0.229,0.384h-0.64l0.229,0.384h-0.639l0.229,0.384h-0.639l0.229,0.384h-0.639l0.229,0.384H62.18l0.229,0.384H61.77l0.229,0.384
			h-0.639l0.229,0.384h-0.639l0.229,0.384h-0.64l0.229,0.384h-0.639l0.229,0.384h-0.639l0.229,0.384h-0.639l0.229,0.384h-0.639
			l0.229,0.384h-0.639l0.229,0.384h-0.639l0.229,0.384h-0.639l0.229,0.384h-0.639l51.442,86.32v49.978h54.573v-0.384h0.411v-0.384
			h0.411v-0.384h0.411v-0.384h0.411v-0.384h0.411v-0.384h0.411v-0.384h0.41v-0.384h0.411v-0.384h0.411v-0.384h0.411v-0.384h0.411
			v-0.384h0.411v-0.384h0.411v-0.384h0.411v-0.384h0.411v-0.384h0.41v-0.384h0.411v-0.384h0.411v-0.384h0.411V391h0.411v-0.384
			h0.411v-0.384h0.411v-0.384h0.411v-0.384h0.41v-0.384h0.411v-0.384h0.411v-0.384h0.41v-0.384h0.411v-0.384h0.411v-0.384h0.411
			v-0.384h0.41v-0.384h0.411v-0.384h0.411v-0.384h0.411v-0.384h0.411v-0.384h0.411v-0.384h0.41v-0.384h0.411v-0.384h0.411v-0.384
			h0.411v-0.384h0.41v-0.384h0.411v-0.384h0.411v-0.384h0.41v-0.384h0.411v-0.384h0.411v-0.384h0.411v-0.384h0.411v-0.384h0.411
			v-0.384h0.411v-0.384h0.411v-49.46l9.652-16.306c-1.337,5.52-2.04,11.279-2.04,17.2c0,19.878,7.747,37.992,21.813,51.008
			c13.911,12.871,33.182,19.959,54.263,19.959c21.081,0,40.351-7.088,54.263-19.959c0.082-0.076,0.159-0.158,0.241-0.235
			c0.056-0.051,0.115-0.098,0.17-0.149c0.083-0.077,0.159-0.158,0.241-0.235c0.055-0.051,0.115-0.098,0.17-0.149
			c0.083-0.076,0.159-0.158,0.241-0.235c0.056-0.051,0.115-0.098,0.17-0.149c0.083-0.077,0.159-0.158,0.241-0.235
			c0.055-0.051,0.114-0.098,0.17-0.149c0.082-0.076,0.159-0.158,0.241-0.235c0.055-0.051,0.114-0.098,0.17-0.149
			c0.083-0.076,0.159-0.158,0.241-0.235c0.055-0.051,0.115-0.098,0.17-0.149c0.083-0.077,0.159-0.158,0.241-0.235
			c0.055-0.051,0.115-0.098,0.17-0.149c0.083-0.076,0.159-0.158,0.241-0.235c0.055-0.051,0.114-0.098,0.17-0.149
			c0.082-0.077,0.159-0.158,0.241-0.235c0.055-0.051,0.114-0.098,0.17-0.149c0.082-0.076,0.159-0.158,0.241-0.235
			c0.055-0.051,0.115-0.098,0.17-0.149c0.083-0.077,0.159-0.158,0.242-0.235c0.055-0.051,0.114-0.098,0.169-0.149
			c0.083-0.076,0.158-0.158,0.241-0.235c0.056-0.051,0.115-0.098,0.17-0.149c0.082-0.076,0.159-0.158,0.241-0.235
			c0.055-0.051,0.115-0.098,0.17-0.149c0.083-0.077,0.159-0.158,0.241-0.235c0.055-0.051,0.115-0.098,0.17-0.149
			c0.083-0.076,0.159-0.158,0.241-0.235c0.055-0.051,0.115-0.098,0.17-0.149c0.083-0.076,0.159-0.158,0.241-0.235
			c0.055-0.051,0.114-0.098,0.17-0.149c0.082-0.076,0.159-0.158,0.241-0.235c0.055-0.051,0.114-0.098,0.17-0.149
			c0.083-0.076,0.159-0.158,0.241-0.235c0.055-0.051,0.115-0.098,0.17-0.149c0.083-0.077,0.159-0.158,0.241-0.235
			c0.055-0.051,0.114-0.098,0.17-0.149c0.083-0.077,0.159-0.158,0.241-0.235c0.055-0.051,0.114-0.098,0.17-0.149
			c0.082-0.076,0.159-0.158,0.241-0.235c0.055-0.051,0.115-0.098,0.17-0.149c0.083-0.076,0.159-0.158,0.241-0.235
			c0.055-0.051,0.115-0.098,0.17-0.149c0.083-0.077,0.159-0.159,0.242-0.236c0.055-0.051,0.114-0.098,0.169-0.148
			c0.083-0.077,0.159-0.158,0.241-0.235c0.055-0.051,0.114-0.098,0.17-0.149c0.082-0.076,0.159-0.158,0.241-0.235
			c0.056-0.051,0.115-0.098,0.17-0.149c0.083-0.076,0.159-0.158,0.241-0.235c0.055-0.051,0.115-0.098,0.17-0.149
			c0.083-0.077,0.159-0.158,0.241-0.235c0.055-0.051,0.115-0.098,0.17-0.149c0.083-0.076,0.159-0.158,0.241-0.235
			c0.056-0.051,0.114-0.098,0.17-0.149c0.082-0.077,0.159-0.158,0.241-0.235c0.055-0.051,0.115-0.098,0.17-0.149
			c0.083-0.077,0.159-0.158,0.241-0.235c0.055-0.051,0.115-0.098,0.17-0.149c0.083-0.076,0.159-0.158,0.241-0.235
			c0.055-0.051,0.114-0.098,0.17-0.149c0.083-0.077,0.159-0.158,0.241-0.235c0.055-0.051,0.114-0.098,0.17-0.149
			c0.082-0.076,0.159-0.158,0.241-0.235c0.055-0.051,0.115-0.098,0.17-0.149c0.082-0.077,0.159-0.158,0.241-0.235
			c0.056-0.051,0.115-0.098,0.17-0.149c0.083-0.077,0.159-0.159,0.242-0.236c0.055-0.051,0.114-0.098,0.169-0.148
			c0.083-0.076,0.159-0.158,0.241-0.235c0.055-0.051,0.114-0.098,0.17-0.149c0.082-0.077,0.159-0.158,0.241-0.235
			c0.056-0.051,0.115-0.098,0.17-0.149c0.083-0.076,0.159-0.158,0.241-0.235c0.056-0.051,0.115-0.098,0.17-0.149
			c0.083-0.076,0.159-0.158,0.241-0.235c0.056-0.051,0.115-0.098,0.17-0.149c0.083-0.076,0.159-0.158,0.241-0.235
			c0.056-0.051,0.114-0.098,0.17-0.149c0.082-0.076,0.159-0.158,0.241-0.235c0.055-0.051,0.114-0.098,0.17-0.149
			c0.083-0.077,0.159-0.158,0.241-0.235c0.055-0.051,0.115-0.098,0.17-0.149c0.083-0.076,0.159-0.158,0.241-0.235
			c0.056-0.051,0.115-0.098,0.17-0.149c0.083-0.076,0.159-0.158,0.241-0.235c0.056-0.051,0.114-0.098,0.17-0.149
			c0.082-0.076,0.159-0.158,0.241-0.235c0.055-0.051,0.114-0.098,0.17-0.149c0.083-0.077,0.159-0.159,0.242-0.236
			c0.055-0.051,0.114-0.098,0.169-0.148c0.083-0.077,0.159-0.158,0.241-0.235c0.056-0.051,0.115-0.098,0.17-0.149
			c0.082-0.076,0.159-0.158,0.241-0.235c0.055-0.051,0.114-0.098,0.17-0.149c0.082-0.077,0.159-0.158,0.241-0.235
			c0.056-0.051,0.115-0.098,0.17-0.149c0.083-0.076,0.159-0.158,0.241-0.235c0.056-0.051,0.115-0.098,0.17-0.149
			c0.083-0.076,0.159-0.158,0.241-0.235c0.056-0.051,0.115-0.098,0.17-0.149c3.014-2.789,5.719-5.825,8.139-9.05v45.773h54.574
			v-0.384h0.411v-0.384h0.411v-0.384h0.411v-0.384h0.411v-0.384h0.411v-0.384h0.411v-0.384h0.411v-0.384h0.41v-0.384h0.411v-0.384
			h0.411v-0.384h0.41v-0.384h0.41v-0.384h0.411v-0.384h0.411v-0.384h0.41v-0.384h0.411v-0.384h0.411v-0.384h0.411v-0.384h0.411V391
			h0.41v-0.384h0.411v-0.384h0.411v-0.384h0.41v-0.384h0.41v-0.384h0.411v-0.384h0.411v-0.384h0.41v-0.384h0.411v-0.384h0.411
			v-0.384h0.411v-0.384h0.411v-0.384h0.411v-0.384h0.411v-0.233l8.726,12.904h60.131l-0.261-0.384h0.672l-0.261-0.384h0.672
			l-0.261-0.384h0.672l-0.262-0.384h0.672l-0.261-0.384h0.672l-0.261-0.384h0.672l-0.261-0.384h0.672l-0.262-0.384h0.672
			l-0.261-0.384h0.672l-0.261-0.384h0.672l-0.261-0.384h0.672l-0.261-0.384h0.672l-0.261-0.384h0.672l-0.261-0.384h0.311v5.376
			h53.869v-0.384h0.411v-0.384h0.411v-0.384h0.411v-0.384h0.41v-0.384h0.411v-0.384h0.411v-0.384h0.411v-0.384h0.411v-0.384h0.411
			v-0.384h0.411v-0.384h0.411v-0.384h0.41v-0.384h0.411v-0.384h0.411v-0.384h0.411v-0.384h0.41v-0.384h0.411v-0.384h0.411v-0.384
			h0.411V391h0.41v-0.384h0.411v-0.384h0.411v-0.384h0.411v-0.384h0.411v-0.384h0.411v-0.384h0.411v-0.384h0.411v-0.384h0.411
			v-0.384h0.411v-0.384h0.411v-0.384h0.411v-0.384h0.41v-0.384h0.411v-0.384h0.411v-0.384h0.411v-0.384h0.411v-0.384h0.411v-0.384
			h0.411v-0.384h0.411v-0.384h0.41v-0.384h0.411v-0.384h0.411v-0.384h0.41v-0.384h0.015l12.743,16.895h64.334l-0.288-0.384h0.698
			l-0.288-0.384h0.699l-0.288-0.384h0.699l-0.288-0.384h0.699l-0.288-0.384h0.698l-0.288-0.384h0.699l-0.288-0.384h0.699
			l-0.288-0.384h0.699l-0.288-0.384h0.699l-0.288-0.384h0.698l-0.288-0.384h0.699l-0.288-0.384h0.699l-0.288-0.384h0.699
			l-0.288-0.384h0.698l-0.288-0.384h0.699l-0.288-0.384h0.699l-0.288-0.384h0.698l-0.288-0.384h0.698l-0.288-0.384h0.699
			L649.739,391h0.699l-0.288-0.384h0.699l-0.288-0.384h0.698l-0.288-0.384h0.699l-0.288-0.384h0.699l-0.288-0.384h0.699
			l-0.288-0.384h0.699l-0.288-0.384h0.699l-0.288-0.384h0.699l-0.288-0.384h0.698l-0.288-0.384h0.698l-0.288-0.384h0.699
			l-0.288-0.384h0.699l-0.288-0.384h0.698l-0.288-0.384h0.698l-0.288-0.384h0.699l-0.288-0.384h0.699l-0.288-0.384h0.699
			l-0.288-0.384h0.699l-0.288-0.384h0.699l-0.288-0.384h0.699l-0.288-0.384h0.698l-0.288-0.384h0.698l-0.288-0.384h0.699
			l-0.288-0.384h0.699l-0.288-0.384h0.698l-0.288-0.384h0.698l-0.288-0.384h0.699l-0.288-0.384h0.699l-0.288-0.384h0.699
			l-0.288-0.384h0.699L662.468,379.097z M267.69,310.948c0-1.644,0.123-3.217,0.334-4.732c12.578,0.067,21.022,9.818,21.022,24.315
			c0,1.644-0.123,3.217-0.334,4.731C276.135,335.196,267.69,325.446,267.69,310.948z M176.243,246.638l-0.229,0.384h-0.182
			l-0.228,0.384h-0.182l-0.229,0.384h-0.182l-0.229,0.384H174.6l-0.229,0.384h-0.182l-0.228,0.384h-0.182l-0.229,0.384h-0.182
			l-0.229,0.384h-0.182l-0.228,0.384h-0.182l-0.228,0.384h-0.182l-0.229,0.384h-0.182l-0.229,0.384h-0.182l-0.229,0.384h-0.182
			l-0.228,0.384h-0.182l-0.229,0.384h-0.182l-0.229,0.384h-0.182l-0.229,0.384h-0.182l-0.228,0.384h-0.182l-0.229,0.384h-0.182
			l-0.229,0.384h-0.182l-0.229,0.384h-0.182l-0.228,0.384h-0.182l-0.229,0.384h-0.182l-0.229,0.384h-0.182l-0.229,0.384h-0.182
			l-0.228,0.384h-0.182l-0.229,0.384h-0.182l-0.229,0.384h-0.182l-0.229,0.384h-0.182l-0.228,0.384h-0.182l-0.229,0.384h-0.182
			l-0.229,0.384h-0.182l-0.229,0.384h-0.182l-0.228,0.384h-0.182l-0.229,0.384h-0.182l-0.229,0.384h-0.182l-0.229,0.384h-0.182
			l-0.228,0.384h-0.182l-0.229,0.384h-0.182l-0.229,0.384h-0.182l-0.229,0.384h-0.182l-5.332,8.961l-10.895-18.439h23.11v-0.384
			h0.411v-0.384h0.41v-0.384h0.411v-0.384h0.411v-0.384h0.41v-0.384h0.411v-0.384h0.411v-0.384h0.411v-0.384h0.411v-0.384h0.411
			v-0.384h0.411v-0.384h0.411v-0.384h0.411v-0.384h0.411v-0.384h0.411v-0.384h0.411v-0.384h0.411v-0.384h0.41v-0.384h0.411v-0.384
			h0.411v-0.384h0.41v-0.384h0.411v-0.384h0.411v-0.384h0.411v-0.384h0.411v-0.384h0.411v-0.384h0.411v-0.384h0.411v-0.384h0.41
			v-0.384h0.411v-0.384h0.411v-0.384h0.411v-0.384h0.41v-0.384h0.411v-0.384h0.411v-0.384h0.411v-0.384h0.411v-0.384h0.411v-0.384
			h0.41v-0.384h0.411v-0.384h0.411v-0.384h0.41v-0.384h0.411v-0.384h0.411v-0.384h0.411v-0.384h0.411v-0.384h0.411v-0.384H186
			v-0.384h0.411v-0.384h0.411v-0.384h0.397l7.928,9.478h-14.798l-0.229,0.384h-0.182l-0.229,0.384h-0.182l-0.229,0.384h-0.182
			l-0.228,0.384h-0.182l-0.229,0.384h-0.182l-0.229,0.384h-0.182l-0.229,0.384h-0.182l-0.228,0.384h-0.182l-0.229,0.384h-0.182
			l-0.229,0.384H176.243z M357.81,256.237v0.384h-0.411v0.384h-0.411v0.384h-0.41v0.384h-0.41v0.384h-0.411v0.384h-0.411v0.384
			h-0.41v0.384h-0.41v0.384h-0.411v0.384h-0.411v0.384h-0.41v0.384h-0.411v0.384h-0.411v0.384h-0.411v0.384h-0.411v0.384h-0.41
			v6.609c-2.42-3.225-5.125-6.261-8.139-9.05c-2.796-2.587-5.818-4.928-9.018-7.038h27.423v0.263h-0.41v0.384h-0.411v0.384h-0.411
			v0.384h-0.41v0.384h-0.411v0.384h-0.411v0.384h-0.411v0.384h-0.411v0.384H357.81z M384.172,144.734v-0.384h0.411v-0.384h0.233
			l31.626,98.832h-34.087v-0.263h0.411v-0.384h0.411v-0.384h0.41v-0.384h0.411v-0.384h0.411v-0.384h0.41v-0.384h0.411v-0.384h0.411
			v-0.384h0.411v-0.384h0.411v-0.384h0.411v-0.384h0.411v-0.384h0.411v-0.384h0.41v-0.384h0.411v-0.384h0.411v-0.384h0.411v-0.384
			h0.411v-0.384h0.411v-0.384h0.411v-0.384h0.411v-0.384h0.411v-0.384h0.41v-0.384h0.411v-0.384h0.411v-41.059h-16.493v-0.353h0.41
			v-0.384h0.411v-0.384h0.411v-0.384h0.41v-0.384h0.41v-0.384h0.411v-0.384h0.411v-0.384h0.41v-0.384h0.411v-0.384h0.411v-0.384
			h0.411v-0.384h0.411v-0.384h0.41v-0.384h0.411v-0.384h0.411v-0.384h0.41v-0.384h0.41v-40.263h0.244v-0.384h0.411v-0.384H384.172z
			 M480.516,337.008c0.089-0.079,0.17-0.164,0.258-0.244c0.141-0.125,0.271-0.258,0.411-0.384c0.141-0.125,0.272-0.258,0.411-0.384
			c0.141-0.125,0.272-0.258,0.411-0.385c0.141-0.125,0.271-0.257,0.41-0.383c0.141-0.125,0.271-0.258,0.41-0.384
			c0.141-0.125,0.271-0.258,0.411-0.384c0.141-0.125,0.271-0.258,0.411-0.384c0.141-0.125,0.271-0.258,0.41-0.384
			c0.141-0.125,0.272-0.258,0.411-0.384c0.141-0.125,0.272-0.258,0.411-0.384c3.461-3.072,6.37-6.565,8.727-10.414v33.734
			L480.516,337.008z M500.999,255.469v0.384h-0.411v0.384h-0.411v0.384h-0.411v0.384h-0.411v0.384h-0.411v0.384h-0.41v0.384h-0.411
			v0.384h-0.411v0.384h-0.41v0.384h-0.41v0.384h-0.411v0.384h-0.411v0.384h-0.41v0.384h-0.411v0.384h-0.411v0.384h-0.411v0.384
			h-0.411v0.384h-0.411v6.46c-4.365-7.209-10.631-13.118-18.496-17.474h0.271l0.122-0.384h0.289l0.122-0.384h0.288l0.122-0.384
			h0.288l0.122-0.384h0.288l0.122-0.384h0.288l0.122-0.384h0.288l0.122-0.384h0.289l0.122-0.384h0.288l0.122-0.384h0.288
			l0.122-0.384h0.288l0.122-0.384h0.289l0.122-0.384h0.289l0.122-0.384h0.289l0.122-0.384h0.289l0.122-0.384h0.288l0.122-0.384
			h0.288l0.122-0.384h0.289l0.122-0.384h0.288l0.122-0.384h0.288l0.122-0.384h0.288l0.122-0.384h0.288l0.122-0.384h0.288
			l0.122-0.384h0.289l0.122-0.384h0.288l0.122-0.384h0.288l0.122-0.384h0.288l0.122-0.384h0.288l0.122-0.384h0.289l0.122-0.384
			h0.288l0.122-0.384h0.288l0.122-0.384h0.288l0.122-0.384h0.288l0.122-0.384h0.288l0.122-0.384h0.289l0.122-0.384h0.288
			l0.122-0.384h0.288l0.122-0.384h0.289l0.122-0.384h0.288l0.122-0.384h0.288l0.122-0.384h0.288l0.122-0.384h0.288l0.122-0.384
			h0.288l0.122-0.384h0.288l0.122-0.384h0.288l0.122-0.384h0.288l0.122-0.384h0.288l0.122-0.384h0.288l2.268-7.126l7.801,25.82
			h-0.055v0.384h-0.411v0.384h-0.411v0.384h-0.41v0.384h-0.411v0.384h-0.411v0.384h-0.41v0.384h-0.411v0.384h-0.411v0.384H500.999z
			 M253.059,247.527v-0.384h0.411v-0.384h0.411v-0.384h0.411v-0.384h0.411v-0.384h0.41v-0.384h0.411v-0.384h0.411v-0.384h0.228
			v1.806c-1.187,0.49-2.359,1.005-3.513,1.551v-0.285H253.059z M252.428,247.911c-0.063,0.03-0.127,0.059-0.191,0.09v-0.09H252.428z
			 M214.16,279.038l15.47-26.135h13.964c-3.2,2.109-6.222,4.451-9.018,7.038c-0.082,0.076-0.159,0.158-0.241,0.235
			c-0.055,0.051-0.115,0.098-0.17,0.149c-0.083,0.077-0.159,0.158-0.241,0.235c-0.055,0.051-0.115,0.098-0.17,0.149
			c-0.083,0.076-0.159,0.158-0.241,0.235c-0.055,0.051-0.114,0.098-0.17,0.149c-0.083,0.077-0.159,0.159-0.242,0.236
			c-0.055,0.051-0.114,0.098-0.169,0.148c-0.083,0.076-0.158,0.158-0.241,0.235c-0.055,0.051-0.115,0.098-0.17,0.149
			c-0.083,0.077-0.159,0.158-0.241,0.235c-0.055,0.051-0.115,0.098-0.17,0.149c-0.083,0.077-0.159,0.158-0.241,0.235
			c-0.055,0.051-0.115,0.098-0.17,0.149c-0.083,0.076-0.159,0.158-0.241,0.235c-0.055,0.051-0.114,0.098-0.17,0.149
			c-0.082,0.076-0.159,0.158-0.241,0.235c-0.056,0.051-0.115,0.098-0.17,0.149c-0.083,0.076-0.159,0.158-0.241,0.235
			c-0.055,0.051-0.115,0.098-0.17,0.149c-0.083,0.076-0.159,0.158-0.241,0.235c-0.056,0.051-0.115,0.098-0.17,0.149
			c-0.083,0.077-0.159,0.158-0.241,0.235c-0.055,0.051-0.114,0.098-0.17,0.149c-0.082,0.076-0.159,0.158-0.241,0.235
			c-0.055,0.051-0.115,0.098-0.17,0.149c-0.083,0.076-0.159,0.158-0.241,0.235c-0.055,0.051-0.115,0.098-0.17,0.149
			c-0.083,0.076-0.159,0.158-0.241,0.235c-0.055,0.051-0.114,0.098-0.17,0.149c-0.083,0.077-0.159,0.159-0.242,0.236
			c-0.055,0.051-0.114,0.098-0.169,0.148c-0.082,0.077-0.159,0.158-0.241,0.235c-0.055,0.051-0.114,0.098-0.17,0.149
			c-0.082,0.076-0.159,0.158-0.241,0.235c-0.055,0.051-0.115,0.098-0.17,0.149c-0.083,0.077-0.159,0.158-0.241,0.235
			c-0.055,0.051-0.115,0.098-0.17,0.149c-0.082,0.076-0.159,0.158-0.241,0.235c-0.055,0.051-0.114,0.098-0.17,0.149
			c-0.082,0.076-0.159,0.158-0.241,0.235c-0.055,0.051-0.115,0.098-0.17,0.149c-0.083,0.077-0.159,0.158-0.241,0.235
			c-0.056,0.051-0.115,0.098-0.17,0.149c-0.083,0.076-0.159,0.158-0.241,0.235c-0.055,0.051-0.115,0.098-0.17,0.149
			c-0.083,0.077-0.159,0.158-0.241,0.235c-0.056,0.051-0.114,0.098-0.17,0.149c-0.082,0.077-0.159,0.158-0.241,0.235
			c-0.055,0.051-0.115,0.098-0.17,0.149c-0.083,0.076-0.159,0.158-0.241,0.235c-0.055,0.051-0.115,0.098-0.17,0.149
			c-0.083,0.077-0.159,0.158-0.241,0.235c-0.056,0.051-0.115,0.098-0.17,0.149c-0.083,0.077-0.159,0.159-0.242,0.236
			c-0.055,0.051-0.114,0.098-0.169,0.148c-0.082,0.077-0.159,0.158-0.241,0.235c-0.055,0.051-0.114,0.098-0.17,0.149
			c-0.083,0.076-0.159,0.158-0.241,0.235c-0.055,0.051-0.115,0.098-0.17,0.149c-0.083,0.077-0.159,0.158-0.241,0.235
			c-0.055,0.051-0.115,0.098-0.17,0.149c-0.083,0.076-0.159,0.158-0.241,0.235c-0.055,0.051-0.114,0.098-0.17,0.149
			c-0.082,0.076-0.159,0.158-0.241,0.235c-0.056,0.051-0.115,0.098-0.17,0.149c-0.083,0.077-0.159,0.158-0.241,0.235
			c-0.055,0.051-0.115,0.098-0.17,0.149c-0.083,0.076-0.159,0.158-0.241,0.235c-0.055,0.051-0.114,0.098-0.17,0.149
			c-0.083,0.076-0.159,0.158-0.241,0.235c-0.055,0.051-0.114,0.098-0.17,0.149c-0.082,0.076-0.159,0.158-0.241,0.235
			c-0.055,0.051-0.115,0.098-0.17,0.149c-0.083,0.076-0.159,0.158-0.241,0.235c-0.055,0.051-0.115,0.098-0.17,0.149
			c-0.083,0.077-0.159,0.159-0.242,0.236c-0.055,0.051-0.114,0.098-0.169,0.148c-0.083,0.076-0.158,0.158-0.241,0.235
			c-0.055,0.051-0.115,0.098-0.17,0.149c-0.082,0.077-0.159,0.158-0.241,0.235c-0.055,0.051-0.114,0.098-0.17,0.149
			c-0.083,0.077-0.159,0.158-0.241,0.235c-0.055,0.051-0.115,0.098-0.17,0.149c-0.083,0.076-0.159,0.158-0.241,0.235
			c-0.055,0.051-0.114,0.098-0.17,0.149c-0.082,0.076-0.159,0.158-0.241,0.235c-0.055,0.051-0.114,0.098-0.17,0.149
			c-0.083,0.076-0.159,0.158-0.241,0.235c-0.055,0.051-0.115,0.098-0.17,0.149c-0.082,0.076-0.159,0.158-0.241,0.235
			c-0.056,0.051-0.115,0.098-0.17,0.149c-0.083,0.077-0.159,0.158-0.241,0.235c-0.055,0.051-0.115,0.098-0.17,0.149
			c-0.083,0.076-0.159,0.158-0.241,0.235c-0.055,0.051-0.114,0.098-0.17,0.149c-0.082,0.076-0.159,0.158-0.241,0.235
			c-0.055,0.051-0.115,0.098-0.17,0.149c-0.083,0.077-0.159,0.158-0.241,0.235C214.197,279.006,214.178,279.021,214.16,279.038z"/>
		<polygon style="fill:none;" points="214.733,97.022 214.733,141.624 177.426,97.022 133.712,97.022 133.712,233.32 
			187.232,233.32 187.232,188.719 224.539,233.32 268.251,233.32 268.251,97.022 		"/>
		<g>
			<polygon style="fill:#5E4424;" points="168.957,145.72 112.771,193.906 112.771,204.005 180.733,145.72 			"/>
			<polygon style="fill:#5E4424;" points="590.235,398.679 623.554,398.679 655.733,369.186 642.16,351.089 			"/>
			<path style="fill:#5E4424;" d="M442.31,127.257l-49.309,42.288l2.536,7.924l45.396-38.932
				C441.472,134.788,441.92,131.026,442.31,127.257z"/>
			<path style="fill:#5E4424;" d="M480.992,166.902c-1.85,0.17-3.71,0.229-5.579,0.129c-3.756-0.202-7.202-2.594-9.2-5.745
				c-2.423-1.372-4.399-3.178-5.752-5.335l-55.527,50.892l7.556,23.613l69.231-63.452
				C481.48,166.963,481.233,166.948,480.992,166.902z"/>
			<path style="fill:#5E4424;" d="M469.253,371.42l-31.785,27.259h11.776l25.89-22.204
				C472.733,375.533,470.621,373.7,469.253,371.42z"/>
			<path style="fill:#5E4424;" d="M331.173,346.269h-11.776l-63.478,54.44c3.556,0.472,7.191,0.723,10.882,0.766L331.173,346.269z"
				/>
			<polygon style="fill:#5E4424;" points="158.342,97.022 112.771,138.789 112.771,169.326 183.603,104.407 177.426,97.022 			"/>
			<path style="fill:#5E4424;" d="M550.252,365.406l-38.797,33.273h11.776l33.799-28.987
				C554.411,369.043,551.968,367.482,550.252,365.406z"/>
			<polygon style="fill:#5E4424;" points="464.343,328.629 431.025,328.629 354.595,398.679 387.914,398.679 			"/>
			<path style="fill:#5E4424;" d="M143.951,273.44c-0.966-2.227-1.188-4.828-0.761-7.435c0.073-0.446,0.177-0.881,0.293-1.313
				c-0.897-3.049-1.282-6.169-1.277-9.305l-57.639,52.827l11.77,19.75l49.479-45.349
				C144.696,279.744,144.119,276.643,143.951,273.44z"/>
			<path style="fill:#5E4424;" d="M264.725,336.57l-50.056,45.877c5.787,5.142,12.443,9.326,19.747,12.439l56.159-51.471
				C280.391,344.99,270.553,343.586,264.725,336.57z"/>
			<path style="fill:#5E4424;" d="M182.472,346.055l-61.36,52.624h11.776l51.322-44.015v-2.618
				C183.027,350.299,182.458,348.179,182.472,346.055z"/>
		</g>
		<g>
			<g>
				<g>
					<polygon style="fill:#E48842;" points="330.972,192.262 330.972,185.765 383.107,185.765 383.107,144.649 330.972,144.649 
						330.972,138.975 390.331,138.975 390.331,97.022 277.102,97.022 277.102,233.32 392.62,233.32 392.62,192.262 					"/>
					<polygon style="fill:#E48842;" points="570.601,97.022 552.802,152.632 535.965,97.022 488.191,97.022 470.372,151.999 
						453.519,97.022 397,97.022 440.616,233.32 494.681,233.32 510.726,182.898 525.959,233.32 580.095,233.32 623.712,97.022 					
						"/>
					<polygon style="fill:#E48842;" points="214.733,97.022 214.733,141.624 177.426,97.022 133.712,97.022 133.712,233.32 
						187.232,233.32 187.232,188.719 224.539,233.32 268.251,233.32 268.251,97.022 					"/>
				</g>
				<g>
					<polygon style="fill:#E48842;" points="180.349,242.798 158.703,279.174 137.211,242.798 78.194,242.798 129.635,329.119 
						129.635,379.097 184.209,379.097 184.209,329.637 235.611,242.798 					"/>
					<path style="fill:#E48842;" d="M343.101,259.94c-13.911-12.871-33.182-19.959-54.262-19.959
						c-21.081,0-40.351,7.088-54.263,19.959c-14.066,13.016-21.814,31.13-21.814,51.008c0,19.878,7.747,37.992,21.814,51.008
						c13.911,12.871,33.182,19.959,54.263,19.959c21.08,0,40.351-7.088,54.262-19.959c14.066-13.016,21.814-31.131,21.814-51.008
						C364.914,291.071,357.167,272.956,343.101,259.94z M288.838,335.268c-12.649,0-21.148-9.773-21.148-24.32
						s8.499-24.321,21.148-24.321c12.65,0,21.149,9.774,21.149,24.321S301.488,335.268,288.838,335.268z"/>
					<path style="fill:#E48842;" d="M480.226,336.581c13.284-9.227,20.504-23.462,20.504-40.78c0-32.198-24.608-53.002-62.69-53.002
						h-65.858v136.298h54.574v-30.998h1.315l20.961,30.998h60.131L480.226,336.581z M426.755,287.862h8.645
						c10.406,0,10.406,5.165,10.406,7.939c0,2.774,0,7.939-10.406,7.939h-8.645V287.862z"/>
					<polygon style="fill:#E48842;" points="606.803,303.948 662.393,242.798 599.542,242.798 568.418,277.168 568.418,242.798 
						514.549,242.798 514.549,379.097 568.418,379.097 568.418,344.616 570.813,341.949 598.832,379.097 663.166,379.097 					"/>
				</g>
			</g>
			<g>
				<defs>
					<path id="SVGID_1_" d="M392.62,192.262v41.059H277.102V97.022h113.229v41.953h-59.359v5.675h52.135v41.115h-52.135v6.497
						H392.62z M570.601,97.022l-17.8,55.61l-16.837-55.61h-47.774l-17.819,54.978l-16.853-54.978H397l43.616,136.298h54.066
						l16.044-50.422l15.234,50.422h54.135l43.617-136.298H570.601z M214.733,97.022v44.602l-37.308-44.602h-43.713V233.32h53.519
						v-44.601l37.308,44.601h43.712V97.022H214.733z M180.349,242.798l-21.646,36.375l-21.492-36.375H78.194l51.441,86.32v49.978
						h54.574v-49.46l51.402-86.839H180.349z M364.914,310.948c0,19.878-7.747,37.992-21.814,51.008
						c-13.911,12.871-33.182,19.959-54.262,19.959c-21.081,0-40.351-7.088-54.263-19.959
						c-14.066-13.016-21.814-31.131-21.814-51.008c0-19.878,7.747-37.992,21.814-51.008c13.911-12.871,33.182-19.959,54.263-19.959
						c21.08,0,40.351,7.088,54.262,19.959C357.167,272.956,364.914,291.071,364.914,310.948z M309.987,310.948
						c0-14.547-8.499-24.321-21.149-24.321c-12.649,0-21.148,9.774-21.148,24.321s8.499,24.32,21.148,24.32
						C301.488,335.268,309.987,325.495,309.987,310.948z M509.162,379.097h-60.131l-20.961-30.998h-1.315v30.998h-54.574V242.798
						h65.858c38.083,0,62.69,20.805,62.69,53.002c0,17.318-7.22,31.554-20.504,40.78L509.162,379.097z M426.755,303.74h8.645
						c10.406,0,10.406-5.165,10.406-7.939c0-2.774,0-7.939-10.406-7.939h-8.645V303.74z M606.803,303.948l55.59-61.15h-62.85
						l-31.124,34.37v-34.37h-53.869v136.298h53.869v-34.481l2.394-2.666l28.02,37.147h64.334L606.803,303.948z"/>
				</defs>
				<clipPath id="SVGID_00000067236212290384576670000011912573915903268283_">
					<use xlink:href="#SVGID_1_"  style="overflow:visible;"/>
				</clipPath>
				<path style="clip-path:url(#SVGID_00000067236212290384576670000011912573915903268283_);fill:#DB8143;" d="M659.68,230.474
					c-185.527-45.09-388.47-45.137-607.622,0V79.222H659.68V230.474z"/>
				<path style="clip-path:url(#SVGID_00000067236212290384576670000011912573915903268283_);fill:#CA773E;" d="M659.68,221.471
					c-182.365-84.001-385.228-85.193-607.622,0V79.222H659.68V221.471z"/>
				
					<circle style="clip-path:url(#SVGID_00000067236212290384576670000011912573915903268283_);fill:#E69946;" cx="372.181" cy="239.981" r="105.709"/>
				<g style="clip-path:url(#SVGID_00000067236212290384576670000011912573915903268283_);">
					<path style="fill:#AD6431;" d="M610.904,362.242v-23.764h-9.712v-48.354h-18.804v47.321h-3.1V211.186h-20.664v102.495h-6.819
						v-91.749l-14.465-13.019l-16.531,13.845v79.144h-6.406V155.393h-9.406l-0.299-4.588h10.225v-2.846h-10.41l-2.398-36.745
						l-2.307,36.745h-10.501v2.846h10.322l-0.288,4.588h-9.735v143.823h-9.506v9.506H477v23.144h-1.653v9.505h-4.959v-52.074h-4.546
						v-16.738h-10.126v30.79h-14.051v3.72h-7.853v-15.911h-16.944v24.177h-6.406v20.458h-4.959v-4.34h-3.72v-2.066h-4.34v-3.926
						h-2.479v9.092h-2.893v-22.937l-4.37-20.251l-5.343,20.458v22.524h-3.926v-49.227h-15.247v51.5h-11.588v-51.5h-18.085v-32.267
						h-2.106v32.319h-0.915v24.354h-3.113V280.41h-5.86v-47.335h-2.197v-4.775h-2.747v4.683h-6.501l-9.339,9.613v18.861
						l-19.868-6.317v24.72h-1.373v-6.134h-4.303v3.845h-1.099v2.289h-3.296v-15.198h1.74v-1.557h-2.106v-23.072h-8.973v22.706
						h-2.014v-12.177h-2.655v-1.282h-9.339v1.648h-2.106v12.085h-2.655v1.648h1.373v24.445h-2.289v-11.719h-8.972v-29.481
						l-0.641-0.732V231.61h-3.204v-12.177h-4.212l-3.042-6.134v-20.6h-2.404v-25.646h-1.779v25.691h-2.766v20.355l-2.964,6.324
						h-4.743v12.45h-2.767v14.822l-0.988,0.988v43.476h-4.15v-11.66h-2.866v7.608l-2.668-2.668h-5.336l-2.174,1.779V273.57
						l2.964-3.162v-6.917h-5.928c0,0-0.395-1.383,0-2.964c0.395-1.581-0.593-2.767-1.581-4.545c-0.988-1.779,0.79-1.779,1.581-2.569
						c0.79-0.791-1.186-1.581-1.186-1.581s0.593-2.371,0-3.162c-0.593-0.79-1.383,1.186-4.545-0.79
						c-3.162-1.976-1.581-25.493-1.581-27.469s1.383-2.174,1.186-4.348c-0.197-2.174-4.15-18.774-2.371-19.762
						c1.779-0.988,4.15-3.952,5.533-5.138c1.383-1.186,4.743-4.94,4.545-6.324c-0.198-1.383,1.186-2.767,1.779-3.952
						c0.593-1.186-7.707-4.743-9.09-5.138c-1.383-0.395-4.348,4.348-5.533,4.94c-1.186,0.593-0.988-3.557-0.988-3.557
						s-0.198-4.545-1.186-7.312c-0.988-2.767-4.743-5.336-5.533-7.114c-0.706-1.587,0.003-4.893,0.445-6.712l6.38,2.97l-6.028-4.338
						c0.179-0.689,0.395-1.635,0.449-2.655l7.304-1.994l-7.355,0.578c-0.124-0.956-0.476-1.887-1.183-2.66L168.22,142l-5.094,5.046
						c-0.698-0.415-1.603-0.718-2.744-0.879l-0.74-7.356l-0.639,7.255c-1.245,0.001-2.229,0.269-2.999,0.717l-4.718-5.234
						l3.678,6.06c-0.694,0.749-1.109,1.683-1.323,2.637l-5.842-1.208c-0.322-2.229-0.165-4.484-0.007-6.02
						c0.203-1.976-1.221-7.19-1.221-8.771s0.988-3.36,0.79-6.324c-0.197-2.964-0.988-3.162-1.581-5.533
						c-0.593-2.371,1.186-3.755,2.219-5.138c1.034-1.383-0.441-1.976-1.231-1.976c-0.79,0-0.395-5.929-0.395-5.929s0,0,0.198-0.988
						c0.198-0.988-2.174-0.395-1.976-1.383c0.197-0.988,0.593-5.731-0.593-4.348c-1.186,1.383-2.767,5.336-3.952,6.917
						c-1.186,1.581-0.197,6.126-0.197,6.126s0,0-0.988,0.198c-0.988,0.198-0.79,2.371,1.581,3.557
						c2.371,1.186,0.063,6.576,1.249,8.552c1.186,1.976,1.044,2.569,0.649,3.755c-0.395,1.186,0.075,1.1,0.668,2.483
						c0.593,1.383-1.971,5.924-0.202,14.326c1.136,5.394-1.179,9.421-2.167,12.583c-0.988,3.162,2.569,3.162,2.569,5.138
						c0,1.976,2.569,2.964,1.581,5.929c-0.988,2.964,1.976,6.917,3.045,9.881c1.068,2.964-3.44,4.545-4.033,7.707
						c-0.593,3.162,3.162,3.952,3.952,6.521c0.79,2.569-4.545,5.336-3.359,9.09c1.186,3.755,2.174,11.66,0.646,14.426
						c-1.528,2.767,0.737,10.474,0,12.845c-0.737,2.371-0.844,1.779-0.054,9.09c0.791,7.312-7.455,6.719-7.455,6.719v3.359
						c0,0-2.229,1.581-1.043,2.866c1.186,1.285,1.581,2.865,0,4.051c-1.581,1.186-1.186,4.94-1.186,4.94h-6.324v6.917l2.174,2.371
						v24.11h-5.731l-4.743-50.393H119.3v-34.386H68.418v203.231H670.09v-53.297H610.904z M148.37,150.452
						c-0.245-0.213-0.406-0.583-0.509-1.052l5.591,2.311c-0.041,0.96,0.074,1.818,0.241,2.388l-2.748,1.259
						c0.005-0.765,0.173-1.726,0.173-2.732C151.117,150.452,149.733,151.638,148.37,150.452z M152.105,156.974
						c-0.558-0.062-0.863-0.299-1.019-0.663l3.097-0.762C154.231,156.475,153.455,157.124,152.105,156.974z"/>
					<path style="fill:#854F29;" d="M632.113,362.894l-0.061-11.508l-19.618-4.446h-0.717v-9.609h-2.868v-6.629h-16.063v34.165
						h-2.725v-15.632l-3.708-14.198l-3.033,14.055v15.919h-2.008v-6.31h-1.721v2.725h-3.012v1.434h-2.581v3.012h-3.442v-14.198
						h-4.446v-16.78h-11.76v11.043h-5.45v-2.581h-9.752v-21.369h-7.027v11.617h-3.155v36.141h-3.442v-6.597h-1.147v-16.063h-2.151
						v-6.597h-6.597v-99.817h-6.756h-3.926h-6.528v101.682h-4.446v-54.928l-11.473-9.609l-10.039,9.035v63.676h-4.733v-71.134
						h-14.341v87.627h-2.151v-32.842h-13.051v33.559h-6.741v16.493h-14.772v-25.855h-15.961v15.41h-5.229v-30.27h-15.96v21.189
						h-2.477v-16.511h-5.779v16.511h-2.477v-4.403h-3.302v-36.6h-23.666v31.096h-5.779v-57.513h-1.927v-2.477h-2.201V280.22
						c0,0-0.076-14.08-5.042-16.374l-1.41-25.812l-1.298,25.739c-5.081,2.088-4.997,16.408-4.997,16.408v14.516h-1.517v2.167h-2.058
						v59.905h-5.525v-16.791h-1.733v-3.791h-2.708v-8.775h-4.333v-18.957h-11.483v22.315h-3.358c0,0-0.108-22.857,0-22.749
						c0.109,0.108-12.566,0-12.566,0v26.54h-2.275v2.816h-1.733v6.5h-4.008v4.333h-3.033v-57.955h-11.375v37.373h-7.258
						c0,0-0.325-44.956,0-44.631c0.325,0.325-7.15,0-7.15,0v22.099h-8.449l-3.846,3.846v36.452l-6.31,6.31v-45.958h-11.726v41.164
						h-2.167v-6.175h-2.058v-76.118h-1.744v-15.65h-4.163v-10.822h-4.886v-6.16h-5.66v6.16h-5.103v10.322h-3.496v16.149h-2.497
						v89.403h-2.997v-39.79h-12.153v-9.49h-12.487v16.482h-7.158v18.979h-8.158v-13.652h-1.831v-5.661h-11.82v37.293h-1.691v-12.154
						l-2.638-3.829l-2.331,3.829v14.318h-4.162v-7.825h-1.998c0,0,0.416-10.905,0-10.489c-0.416,0.416-4.662,0-4.662,0v-12.486
						h-4.162v2.497h-3.496v-3.163h-4.329v2.331H78.388v-3.996h-4.662v16.315h-5.328l0.643,56.667h347.63l0,0h208.131h7.51h34.342
						v-37.307H632.113z"/>
				</g>
				
					<circle style="clip-path:url(#SVGID_00000067236212290384576670000011912573915903268283_);fill:#FFAA4E;" cx="477" cy="312.554" r="2.238"/>
				<g style="clip-path:url(#SVGID_00000067236212290384576670000011912573915903268283_);">
					<path style="fill:#854F29;" d="M314.428,205.952c-0.655-0.126-1.318-0.223-1.994-0.256c-0.676-0.008-1.363,0-2.043,0.154
						c-0.678,0.14-1.354,0.376-1.968,0.753c-0.432,0.278-0.824,0.584-1.167,0.995c-0.412-0.342-0.837-0.668-1.31-0.928
						c-0.644-0.393-1.368-0.647-2.095-0.832c-0.732-0.181-1.492-0.224-2.236-0.172c-0.751,0.058-1.466,0.208-2.187,0.515
						c-0.157,0.067-0.237,0.246-0.178,0.408c0.061,0.169,0.247,0.256,0.415,0.196l0.029-0.011c0.597-0.215,1.294-0.33,1.957-0.339
						c0.669-0.008,1.34,0.067,1.975,0.265c0.631,0.201,1.249,0.454,1.796,0.835c0.564,0.351,1.057,0.806,1.53,1.277l0.005,0.005
						c0.042,0.04,0.093,0.077,0.148,0.103c0.285,0.138,0.628,0.019,0.765-0.266c0.197-0.407,0.639-0.884,1.104-1.204
						c0.477-0.337,1.035-0.573,1.62-0.733c0.584-0.173,1.208-0.218,1.83-0.251c0.627-0.007,1.257,0.045,1.889,0.126l0.012,0.001
						c0.169,0.021,0.327-0.092,0.36-0.261C314.719,206.156,314.604,205.986,314.428,205.952z"/>
					<path style="fill:#854F29;" d="M313.293,187.243l0.033-0.011c0.322-0.106,0.725-0.166,1.093-0.161
						c0.375,0.004,0.747,0.055,1.096,0.173c0.703,0.226,1.316,0.665,1.818,1.217l0.004,0.004l0.028,0.027
						c0.049,0.047,0.108,0.086,0.174,0.112c0.28,0.113,0.598-0.023,0.711-0.303c0.068-0.168,0.305-0.453,0.544-0.624
						c0.25-0.188,0.55-0.326,0.872-0.423c0.647-0.192,1.378-0.209,2.101-0.12c0.163,0.02,0.321-0.087,0.358-0.25
						c0.04-0.175-0.069-0.35-0.245-0.39c-0.767-0.176-1.584-0.258-2.419-0.106c-0.415,0.078-0.833,0.215-1.219,0.443
						c-0.211,0.133-0.404,0.271-0.585,0.445c-0.57-0.421-1.221-0.745-1.918-0.894c-0.447-0.102-0.908-0.12-1.357-0.081
						c-0.456,0.045-0.876,0.139-1.322,0.337c-0.15,0.067-0.229,0.238-0.176,0.398C312.94,187.206,313.123,187.299,313.293,187.243z"
						/>
					<path style="fill:#854F29;" d="M307.117,195.699c-0.088-0.102-0.173-0.206-0.271-0.302c-0.303-0.301-0.65-0.564-1.028-0.775
						c-0.384-0.202-0.799-0.347-1.227-0.411c-0.435-0.062-0.845-0.062-1.307,0.06c-0.157,0.042-0.263,0.196-0.238,0.361
						c0.026,0.177,0.191,0.299,0.368,0.273l0.041-0.006c0.292-0.043,0.668-0.018,0.987,0.069c0.328,0.085,0.636,0.232,0.917,0.418
						c0.275,0.197,0.526,0.429,0.743,0.697c0.22,0.265,0.402,0.566,0.571,0.873v0l0.039,0.053c0.062,0.085,0.149,0.153,0.255,0.193
						c0.289,0.108,0.611-0.039,0.719-0.328c0.11-0.294,0.327-0.666,0.57-0.946c0.247-0.293,0.543-0.543,0.88-0.726
						c0.336-0.179,0.703-0.325,1.099-0.37c0.392-0.069,0.801-0.049,1.212-0.011l0.026,0.002c0.164,0.014,0.316-0.098,0.347-0.263
						c0.033-0.176-0.083-0.346-0.259-0.379c-0.455-0.086-0.925-0.153-1.405-0.115c-0.481,0.014-0.962,0.146-1.414,0.339
						c-0.454,0.196-0.868,0.485-1.22,0.831C307.373,195.383,307.243,195.538,307.117,195.699z"/>
					<path style="fill:#854F29;" d="M323.728,199.695c-0.293-0.356-0.594-0.71-0.952-1.028c-0.365-0.307-0.767-0.609-1.285-0.765
						c-0.501-0.171-1.125-0.158-1.639,0.089c-0.274,0.131-0.504,0.294-0.709,0.488c-0.197-0.193-0.428-0.364-0.709-0.482
						c-0.546-0.238-1.17-0.17-1.631,0.03c-0.939,0.416-1.565,1.085-2.131,1.815c-0.102,0.132-0.088,0.324,0.038,0.439
						c0.133,0.121,0.338,0.111,0.459-0.021l0.017-0.018c0.541-0.593,1.229-1.159,1.921-1.377c0.708-0.229,1.193,0.11,1.544,0.782
						l0,0l0.044,0.06c0.05,0.067,0.116,0.124,0.196,0.164c0.275,0.137,0.609,0.026,0.746-0.249c0.132-0.263,0.397-0.58,0.671-0.728
						c0.279-0.164,0.6-0.211,0.949-0.132c0.351,0.064,0.703,0.272,1.036,0.506c0.333,0.245,0.637,0.543,0.939,0.849l0.015,0.015
						c0.117,0.117,0.306,0.129,0.437,0.021C323.822,200.038,323.842,199.833,323.728,199.695z"/>
					<path style="fill:#854F29;" d="M300.852,181.998c0.407,0.2,0.731,0.617,0.991,1.079c0.117,0.207,0.377,0.287,0.59,0.178
						l0.396-0.203c0.217-0.414,0.608-0.855,1.033-1.087c0.431-0.246,0.936-0.304,1.45-0.18c1.043,0.262,1.982,1.1,2.786,1.972
						l0.007,0.008c0.116,0.126,0.312,0.14,0.446,0.029c0.138-0.115,0.158-0.319,0.043-0.458c-0.796-0.963-1.693-1.955-3.044-2.41
						c-0.668-0.218-1.48-0.194-2.145,0.137c-0.421,0.209-0.758,0.497-1.062,0.826c-0.289-0.327-0.63-0.622-1.069-0.808
						c-0.698-0.311-1.503-0.233-2.12,0.025c-1.253,0.538-2.133,1.445-2.912,2.43c-0.105,0.134-0.09,0.329,0.039,0.444
						c0.134,0.119,0.339,0.107,0.458-0.027l0.016-0.018c0.754-0.848,1.696-1.652,2.701-1.992
						C299.96,181.777,300.453,181.787,300.852,181.998z"/>
				</g>
			</g>
		</g>
		<g>
			<path style="fill:#854F29;" d="M644.074,206.086c1.175-0.247,2.365-0.435,3.578-0.501c1.213-0.015,2.447,0,3.667,0.303
				c1.217,0.274,2.43,0.735,3.531,1.473c0.776,0.544,1.478,1.143,2.095,1.947c0.739-0.669,1.502-1.306,2.351-1.815
				c1.156-0.768,2.455-1.266,3.76-1.628c1.314-0.355,2.678-0.439,4.013-0.337c1.347,0.114,2.63,0.407,3.924,1.008
				c0.281,0.131,0.424,0.481,0.32,0.799c-0.109,0.33-0.442,0.501-0.745,0.383l-0.053-0.021c-1.072-0.421-2.323-0.646-3.513-0.663
				c-1.201-0.016-2.405,0.132-3.544,0.518c-1.132,0.394-2.241,0.889-3.224,1.633c-1.011,0.686-1.897,1.578-2.745,2.498l-0.01,0.01
				c-0.075,0.077-0.167,0.15-0.265,0.201c-0.511,0.27-1.126,0.037-1.374-0.521c-0.354-0.797-1.147-1.731-1.981-2.356
				c-0.856-0.659-1.857-1.122-2.907-1.434c-1.048-0.34-2.168-0.427-3.284-0.491c-1.125-0.014-2.256,0.087-3.389,0.247l-0.021,0.003
				c-0.302,0.042-0.587-0.18-0.645-0.511C643.551,206.486,643.758,206.152,644.074,206.086z"/>
			<path style="fill:#854F29;" d="M644.775,186.334l-0.06-0.021c-0.578-0.207-1.301-0.325-1.961-0.315
				c-0.672,0.008-1.34,0.108-1.967,0.339c-1.26,0.441-2.362,1.301-3.262,2.381l-0.007,0.007l-0.05,0.054
				c-0.088,0.092-0.193,0.167-0.313,0.22c-0.502,0.22-1.073-0.045-1.275-0.592c-0.121-0.329-0.548-0.887-0.976-1.221
				c-0.448-0.367-0.987-0.638-1.564-0.827c-1.162-0.376-2.472-0.41-3.77-0.235c-0.293,0.038-0.576-0.169-0.643-0.49
				c-0.072-0.343,0.125-0.685,0.439-0.764c1.377-0.344,2.843-0.504,4.341-0.208c0.744,0.152,1.495,0.42,2.188,0.867
				c0.379,0.261,0.726,0.531,1.05,0.872c1.023-0.823,2.191-1.458,3.443-1.749c0.802-0.2,1.63-0.236,2.435-0.159
				c0.817,0.087,1.572,0.271,2.372,0.659c0.268,0.132,0.41,0.466,0.316,0.778C645.409,186.263,645.08,186.444,644.775,186.334z"/>
			<path style="fill:#854F29;" d="M671.031,177.434c0.159-0.2,0.311-0.403,0.486-0.59c0.543-0.589,1.166-1.103,1.844-1.517
				c0.689-0.396,1.434-0.68,2.201-0.804c0.78-0.12,1.517-0.12,2.345,0.117c0.281,0.082,0.471,0.384,0.427,0.706
				c-0.047,0.346-0.342,0.585-0.66,0.534l-0.074-0.012c-0.524-0.085-1.199-0.036-1.771,0.135c-0.589,0.167-1.142,0.453-1.645,0.819
				c-0.494,0.386-0.943,0.84-1.334,1.363c-0.394,0.519-0.721,1.107-1.024,1.709v0l-0.07,0.104c-0.111,0.166-0.267,0.3-0.457,0.377
				c-0.518,0.211-1.096-0.076-1.289-0.641c-0.197-0.576-0.587-1.303-1.023-1.851c-0.443-0.572-0.974-1.063-1.578-1.42
				c-0.604-0.35-1.262-0.635-1.972-0.725c-0.703-0.136-1.438-0.095-2.174-0.022l-0.046,0.005c-0.295,0.028-0.567-0.192-0.623-0.516
				c-0.06-0.345,0.149-0.677,0.465-0.742c0.817-0.168,1.659-0.299,2.521-0.225c0.862,0.027,1.727,0.287,2.538,0.663
				c0.815,0.383,1.558,0.949,2.189,1.626C670.573,176.817,670.805,177.12,671.031,177.434z"/>
			<path style="fill:#854F29;" d="M617.666,232.888c0.526-0.697,1.066-1.389,1.709-2.012c0.656-0.602,1.377-1.193,2.306-1.497
				c0.9-0.335,2.019-0.308,2.942,0.175c0.491,0.256,0.904,0.576,1.272,0.954c0.353-0.379,0.768-0.713,1.272-0.943
				c0.979-0.466,2.099-0.332,2.927,0.058c1.685,0.814,2.809,2.122,3.824,3.552c0.183,0.259,0.157,0.634-0.068,0.858
				c-0.238,0.237-0.606,0.218-0.823-0.041l-0.03-0.036c-0.97-1.16-2.206-2.268-3.447-2.695c-1.271-0.447-2.141,0.216-2.771,1.53
				l0,0.001l-0.079,0.117c-0.09,0.131-0.209,0.243-0.352,0.321c-0.493,0.269-1.093,0.051-1.339-0.487
				c-0.236-0.516-0.713-1.136-1.204-1.425c-0.5-0.32-1.077-0.413-1.703-0.258c-0.629,0.125-1.261,0.533-1.86,0.99
				c-0.597,0.48-1.143,1.062-1.685,1.66l-0.027,0.03c-0.21,0.23-0.549,0.252-0.783,0.042
				C617.497,233.56,617.461,233.159,617.666,232.888z"/>
			<path style="fill:#854F29;" d="M612.005,208.016c-0.731,0.392-1.312,1.207-1.778,2.111c-0.209,0.404-0.677,0.562-1.059,0.348
				l-0.711-0.398c-0.389-0.809-1.092-1.674-1.854-2.128c-0.773-0.482-1.679-0.596-2.602-0.352c-1.872,0.512-3.556,2.153-4.999,3.859
				l-0.013,0.016c-0.208,0.246-0.56,0.274-0.799,0.058c-0.248-0.224-0.283-0.625-0.078-0.896c1.429-1.884,3.038-3.825,5.462-4.716
				c1.199-0.427,2.655-0.379,3.85,0.267c0.756,0.408,1.359,0.973,1.905,1.615c0.518-0.639,1.131-1.217,1.918-1.581
				c1.253-0.609,2.697-0.456,3.804,0.049c2.248,1.053,3.828,2.827,5.225,4.755c0.189,0.262,0.161,0.644-0.07,0.869
				c-0.24,0.233-0.609,0.21-0.823-0.053l-0.029-0.035c-1.353-1.659-3.043-3.233-4.847-3.898
				C613.605,207.584,612.721,207.602,612.005,208.016z"/>
		</g>
	</g>
</g>
</svg>
